<?xml version="1.0" standalone="no"?>
<!DOCTYPE svg PUBLIC "-//W3C//DTD SVG 20010904//EN"
 "http://www.w3.org/TR/2001/REC-SVG-20010904/DTD/svg10.dtd">
<svg version="1.0" xmlns="http://www.w3.org/2000/svg"
 width="992.000000pt" height="1280.000000pt" viewBox="0 0 992.000000 1280.000000"
 preserveAspectRatio="xMidYMid meet">
<metadata>
Created by potrace 1.15, written by Peter Selinger 2001-2017
</metadata>
<g transform="translate(0.000000,1280.000000) scale(0.100000,-0.100000)"
fill="#000000" stroke="none">
<path d="M3714 12780 c-273 -136 -839 -980 -1372 -2050 -368 -738 -597 -1334
-642 -1670 -18 -130 -9 -169 67 -301 456 -795 575 -1308 407 -1751 -14 -38
-29 -68 -33 -68 -5 0 -46 46 -91 103 -108 131 -279 301 -354 351 -99 66 -146
79 -256 73 -52 -3 -140 -15 -196 -26 -395 -81 -595 -248 -704 -588 l-27 -84
-74 -48 c-112 -72 -222 -164 -295 -248 -70 -81 -140 -180 -132 -188 3 -3 80
-2 173 2 290 14 384 3 635 -71 231 -69 356 -148 441 -280 84 -129 105 -232
119 -591 33 -849 76 -1231 177 -1564 92 -307 257 -577 540 -886 344 -374 707
-535 1858 -820 564 -139 934 -244 1059 -299 98 -44 371 -284 532 -469 l59 -68
160 -30 c227 -44 250 -54 322 -142 33 -40 79 -99 103 -132 53 -74 66 -85 104
-85 40 0 115 77 145 151 19 44 31 58 65 74 26 13 54 39 78 74 l37 54 12 -29
c6 -16 44 -126 85 -244 193 -554 283 -736 406 -817 35 -24 52 -28 108 -28 55
0 73 4 107 27 l41 27 23 -36 c57 -86 127 -98 281 -48 l87 29 88 -28 c243 -75
444 -70 518 13 16 19 17 26 7 53 -6 18 -10 33 -8 36 3 2 49 -4 103 -13 54 -9
159 -19 233 -22 167 -7 233 5 290 52 24 20 56 36 82 40 85 14 274 77 350 117
43 22 93 58 113 79 30 33 35 46 35 87 0 47 0 47 53 75 164 87 237 187 210 288
-8 32 -6 43 14 76 43 71 66 159 61 232 -12 164 -143 299 -421 431 -265 126
-605 225 -1337 390 -533 120 -651 150 -657 169 -11 33 -88 179 -149 282 -207
349 -523 764 -887 1166 l-147 162 55 -19 c159 -55 308 -26 453 90 52 40 53 41
112 34 122 -14 211 41 270 164 33 67 34 68 92 85 78 23 137 78 183 170 19 38
35 75 35 82 0 7 12 15 28 18 15 3 47 20 70 37 63 46 103 134 110 246 l5 85 55
36 c92 62 151 162 175 301 11 59 14 65 58 97 88 63 136 160 146 295 5 59 11
81 30 104 59 71 93 182 93 308 l0 78 43 39 c24 22 56 64 72 93 57 104 42 265
-40 427 l-34 69 35 27 c20 15 49 48 65 73 37 59 40 134 7 201 -21 44 -112 145
-172 189 l-28 22 37 41 c20 23 51 71 68 108 27 57 32 79 35 169 5 113 -6 184
-44 298 l-25 74 31 45 c112 162 133 327 69 523 l-21 63 27 67 c60 148 42 317
-54 497 l-48 90 15 40 c8 22 15 76 16 120 1 71 -3 88 -31 145 -18 36 -52 87
-76 115 l-44 49 48 96 c125 247 100 418 -79 525 l-50 30 -4 76 c-3 57 -12 91
-32 133 -24 49 -32 57 -69 67 -56 15 -158 6 -230 -21 -139 -52 -335 -217 -517
-435 -115 -138 -300 -388 -540 -730 -450 -642 -667 -904 -920 -1114 -117 -98
-321 -254 -324 -249 -1 2 -23 26 -49 54 l-47 51 25 44 c34 62 58 163 51 212
-8 48 -30 93 -64 129 -21 23 -26 39 -29 95 -2 38 -12 101 -24 142 -18 66 -19
84 -9 168 5 51 7 117 4 146 -3 29 -1 79 6 110 17 82 0 151 -56 233 l-45 66 21
59 c25 73 25 151 1 204 -19 42 -85 108 -127 127 -17 8 -23 16 -18 27 48 115
58 159 59 261 0 98 -2 110 -32 173 -38 80 -106 150 -185 190 l-56 28 26 57
c23 49 27 70 27 157 0 90 -3 105 -28 153 -16 30 -57 82 -93 117 l-64 63 15 63
c31 131 14 256 -45 336 -23 31 -94 87 -137 108 -1 0 2 29 7 64 10 72 0 153
-27 208 -39 84 -150 157 -278 184 -33 7 -61 13 -63 14 -1 1 13 49 32 106 78
238 70 393 -24 472 -42 36 -98 49 -193 46 l-79 -3 -14 34 c-34 80 -122 160
-178 160 -17 0 -49 -9 -72 -20z"/>
</g>
</svg>
