<?xml version="1.0" encoding="utf-8"?>
<!-- Generator: Adobe Illustrator 23.1.0, SVG Export Plug-In . SVG Version: 6.00 Build 0)  -->
<svg version="1.1" xmlns="http://www.w3.org/2000/svg" xmlns:xlink="http://www.w3.org/1999/xlink" x="0px" y="0px"
	 viewBox="0 0 595.3 841.9" enable-background="new 0 0 595.3 841.9" xml:space="preserve">
<g id="Capa_1">
	<g>
		<path fill="none" stroke="#7C6A59" stroke-width="5.9101" stroke-miterlimit="10" d="M309,253c0,0-45.4,157.4-25.5,260.4"/>
		
			<path fill="#B85D70" stroke="#7C6A59" stroke-width="5.9101" stroke-linecap="round" stroke-linejoin="round" stroke-miterlimit="10" d="
			M360.9,214.3c49.9-32.3,9-54.5,9-54.5c-32.5-20.7-44.4,29.6-44.4,29.6l1.1-11.1c0,0-1.9-53.6-41.7-41.7c0,0-43.7,13.1,1.3,57.8
			c-57.9-23.9-54.2,23.7-54.2,23.7c1.2,36.9,53.9,14.8,53.9,14.8s-51.6,14.1-33.1,45.1c0,0,22.5,40.8,54.4-9.4
			c-5,59.3,37.6,40.5,37.6,40.5c38.6-15.4,1-55.9,1-55.9s40.8,37.2,55.9-1.5C401.7,251.6,420.1,208.8,360.9,214.3z"/>
		<circle fill="#F28E25" stroke="#7C6A59" stroke-width="2.955" stroke-miterlimit="10" cx="316.5" cy="222.3" r="18.3"/>
		<path fill="none" stroke="#7C6A59" stroke-width="5.9101" stroke-miterlimit="10" d="M428.8,151.2c0,0-24.4,232-61.8,362.2"/>
		
			<path fill="#D97C93" stroke="#7C6A59" stroke-width="5.9101" stroke-linecap="round" stroke-linejoin="round" stroke-miterlimit="10" d="
			M479.2,107.5c45.7-38,2.4-55.2,2.4-55.2c-34.7-16.7-40.6,34.6-40.6,34.6l-0.2-11.1c0,0-8.2-53-46.4-36.5c0,0-41.8,18.2,8.2,57.3
			c-60.3-16.9-51.1,29.9-51.1,29.9c5.6,36.5,55.3,8.3,55.3,8.3s-49.5,20.1-27.5,48.7c0,0,27.2,37.8,52.9-15.8
			c2,59.4,42.1,35.7,42.1,35.7c36.5-19.8-5.6-55.6-5.6-55.6s45,32.1,55.3-8.1C524.2,139.6,537.3,95,479.2,107.5z"/>
		<circle fill="#F5A45B" stroke="#7C6A59" stroke-width="2.955" stroke-miterlimit="10" cx="436.1" cy="120.7" r="18.3"/>
		
			<path fill="#96C456" stroke="#7C6A59" stroke-width="5.9101" stroke-linecap="round" stroke-linejoin="round" stroke-miterlimit="10" d="
			M284.7,459.6c0,0-42.8-71.3,74.4-88.6C363.6,489.4,284.7,459.6,284.7,459.6L284.7,459.6z"/>
		<path fill="none" stroke="#7C6A59" stroke-width="5.9101" stroke-miterlimit="10" d="M173,163c0,0,24.4,232,61.8,362.2"/>
		
			<path fill="#96C456" stroke="#7C6A59" stroke-width="5.9101" stroke-linecap="round" stroke-linejoin="round" stroke-miterlimit="10" d="
			M400.2,373c0,0-15.7-117.5,147.4-73.9C486.7,456.6,400.2,373,400.2,373L400.2,373z"/>
		<g>
			
				<line fill="none" stroke="#7C6A59" stroke-width="3.1903" stroke-linecap="round" stroke-linejoin="round" stroke-miterlimit="10" x1="407.1" y1="370.8" x2="491.7" y2="330.4"/>
			
				<path fill="none" stroke="#7C6A59" stroke-width="3.1903" stroke-linecap="round" stroke-linejoin="round" stroke-miterlimit="10" d="
				M468.6,370.6c-3.9-1.2-33.6-13.1-33.6-13.1l13.2-33"/>
			
				<polyline fill="none" stroke="#7C6A59" stroke-width="3.1903" stroke-linecap="round" stroke-linejoin="round" stroke-miterlimit="10" points="
				492,353.3 465.1,343.2 471.5,317.1 			"/>
		</g>
		
			<path fill="#DB5B7C" stroke="#7C6A59" stroke-width="5.9101" stroke-linecap="round" stroke-linejoin="round" stroke-miterlimit="10" d="
			M122.5,119.3c-45.7-38-2.4-55.2-2.4-55.2c34.7-16.7,40.6,34.6,40.6,34.6l0.2-11.1c0,0,8.2-53,46.4-36.5c0,0,41.8,18.2-8.2,57.3
			c60.3-16.9,51.1,29.9,51.1,29.9c-5.6,36.5-55.3,8.3-55.3,8.3s49.5,20.1,27.5,48.7c0,0-27.2,37.8-52.9-15.8
			c-2,59.4-42.1,35.7-42.1,35.7c-36.5-19.8,5.6-55.6,5.6-55.6s-45,32.1-55.3-8.1C77.6,151.5,64.4,106.8,122.5,119.3z"/>
		<circle fill="#F3A157" stroke="#7C6A59" stroke-width="2.955" stroke-miterlimit="10" cx="165.6" cy="132.5" r="18.3"/>
		
			<path fill="#96C456" stroke="#7C6A59" stroke-width="5.9101" stroke-linecap="round" stroke-linejoin="round" stroke-miterlimit="10" d="
			M191.3,344.4c0,0,17.2-128.5-161.2-80.8C96.7,435.9,191.3,344.4,191.3,344.4L191.3,344.4z"/>
		<g>
			
				<line fill="none" stroke="#7C6A59" stroke-width="3.4889" stroke-linecap="round" stroke-linejoin="round" stroke-miterlimit="10" x1="183.8" y1="342.1" x2="91.2" y2="297.9"/>
			
				<path fill="none" stroke="#7C6A59" stroke-width="3.4889" stroke-linecap="round" stroke-linejoin="round" stroke-miterlimit="10" d="
				M116.5,341.8c4.2-1.3,36.7-14.4,36.7-14.4l-14.5-36.1"/>
			
				<polyline fill="none" stroke="#7C6A59" stroke-width="3.4889" stroke-linecap="round" stroke-linejoin="round" stroke-miterlimit="10" points="
				90.9,322.9 120.4,311.8 113.4,283.3 			"/>
		</g>
		<g>
			<polygon fill="#E09B52" stroke="#7C6B59" stroke-width="5.9101" stroke-linejoin="round" stroke-miterlimit="10" points="
				288.9,819.4 401.9,819.4 448.4,578.6 288.9,578.6 129.3,578.6 175.8,819.4 			"/>
			<polyline fill="#E09B52" stroke="#7C6B59" stroke-width="5.9101" stroke-linejoin="round" stroke-miterlimit="10" points="
				288.9,578.6 478.3,578.6 478.3,501 288.9,501 99.4,501 99.4,578.6 288.9,578.6 			"/>
			<polygon fill="#B0733A" points="133.5,581.7 169.5,581.7 219.9,816.3 178.3,816.3 			"/>
			<polygon fill="#F7B980" points="445.9,581.6 435.4,581.6 388.3,816.2 399.4,816.2 			"/>
			<polygon fill="#B0733A" points="103,503.9 140.1,503.9 155.1,575.8 103,575.8 			"/>
			<polygon fill="#F7B980" points="474.8,503.9 460.4,503.9 445.9,575.8 474.8,575.8 			"/>
		</g>
		<g>
			
				<line fill="none" stroke="#7C6A59" stroke-width="2.238" stroke-linecap="round" stroke-linejoin="round" stroke-miterlimit="10" x1="289" y1="456.3" x2="332.3" y2="406.7"/>
			
				<path fill="none" stroke="#7C6A59" stroke-width="2.238" stroke-linecap="round" stroke-linejoin="round" stroke-miterlimit="10" d="
				M328.6,439c-2.8,0.3-25.3,0.9-25.3,0.9l-0.7-24.9"/>
			
				<polyline fill="none" stroke="#7C6A59" stroke-width="2.238" stroke-linecap="round" stroke-linejoin="round" stroke-miterlimit="10" points="
				338.9,421.3 318.7,422.3 315.6,403.7 			"/>
		</g>
	</g>
</g>
<g id="Capa_2">
</g>
</svg>
